<svg xmlns="http://www.w3.org/2000/svg" viewBox="0 0 1000 1000" enable-background="new 0 0 1000 1000"><g fill="#00c5ca"><path d="M203.95 12.94c-34.41 6.59-67.38 32.97-82.86 65.66l-7.46 15.77v811.44l7.74 16.34c16.06 34.69 49.89 59.64 88.31 65.66 11.76 1.72 134.48 2.58 332.6 2.01 295.9-.86 314.54-1.15 323.43-6.02 5.16-2.87 12.04-9.18 14.91-14.34 5.73-8.89 5.73-18.06 5.73-469.37 0-456.47 0-460.2-5.73-469.66-3.44-5.45-10.9-11.75-18.06-14.91-11.76-5.45-22.36-5.73-328.88-5.45-174.32.29-322.56 1.44-329.73 2.87zm641.7 393.11l.57 351.82-321.71.86-322 .86-16.34 6.59c-8.89 3.73-19.5 9.18-23.22 12.04-4.02 3.16-8.03 5.73-8.89 5.73-1.15 0-1.43-151.96-1.15-337.76l.86-337.48 6.59-13.48c8.32-16.92 26.38-32.69 43.58-38.13 10.61-3.15 64.8-3.73 326.87-3.44l313.97.57.87 351.82zm0 421.49l.86 25.23h-316.55c-315.97 0-316.55 0-324.29 6.02-9.46 7.45-10.04 20.93-1.15 30.39l6.02 6.59h635.96l-.86 24.95-.86 25.23-312.53.86c-346.08.57-330.6 1.43-353.25-18.06-42.72-36.42-26.95-108.96 26.95-123.58 10.9-2.87 78.85-3.44 326.3-3.16l312.53.57.87 24.96zM308.04 134.23c-16.92 5.45-28.39 14.34-37.27 29.82-7.74 12.9-8.03 15.2-8.89 59.93-.86 35.84 0 49.89 3.44 61.65 4.88 17.2 16.92 31.25 33.83 39.86 10.32 5.16 18.92 5.45 200.14 5.45 213.61 0 199.85 1.43 221.35-22.36 14.34-16.06 17.49-32.4 16.34-86.59-1.15-42.44-1.43-45.02-9.17-57.92-9.18-15.77-20.36-24.37-38.42-29.82-18.64-5.76-363.29-5.47-381.35-.02zm372.74 42.15c11.47 5.16 13.48 14.34 13.48 57.06 0 37.85-.29 40.14-6.88 47.88l-6.88 8.03h-362.43l-6.88-8.03c-6.59-7.74-6.88-10.04-6.88-47.88 0-41.86 2.29-51.9 12.62-56.77 8.88-4.31 354.68-4.59 363.85-.29z"/></g></svg>