<svg xmlns="http://www.w3.org/2000/svg" viewBox="0 0 1000 1000" enable-background="new 0 0 1000 1000"><g fill="#00c5ca"><path d="M468.2 980.6c25 0 45.4-20.1 45.4-45.9v-869.5c0-25.4-20.6-45.9-45.4-45.9h-138.2c-25 0-45.4 20.1-45.4 45.9v869.5c0 25.4 20.6 45.9 45.4 45.9h138.2zm-137.9-915.3c0-.4 137.4-.1 137.4-.1-.4 0-.3 869.5-.3 869.5 0 .4-137.4.1-137.4.1.4.1.3-869.5.3-869.5zM823 982.1l133.5-35.8c24.2-6.5 38.6-31.2 32-56.1l-225.2-839.7c-6.5-24.5-31.8-39-55.7-32.6l-133.5 35.7c-24.2 6.5-38.6 31.2-32 56.1l225 839.9c6.7 24.4 32 38.9 55.9 32.5zm-103.9-919.8c-.4.1 224.8 840 224.8 840 .1.4-132.7 35.7-132.7 35.7.4-.1-224.8-840-224.8-840-.1-.4 132.7-35.7 132.7-35.7zM193.5 980.6c25 0 45.4-20.1 45.4-45.9v-869.5c0-25.4-20.6-45.9-45.4-45.9h-138.1c-25 0-45.4 20.1-45.4 45.9v869.5c0 25.4 20.6 45.9 45.4 45.9h138.1zm-137.8-915.3c0-.4 137.4-.1 137.4-.1-.4 0-.3 869.5-.3 869.5 0 .4-137.4.1-137.4.1.3.1.3-869.5.3-869.5z"/></g></svg>