<svg xmlns="http://www.w3.org/2000/svg" viewBox="0 0 1000 1000" enable-background="new 0 0 1000 1000"><path fill="#00c5ca" d="M957.3 640.9c18.1 0 32.7-14.7 32.7-32.7v-376.9c0-9.1-3.7-17.3-9.7-23.2l-.8-1.5c-2.4-2.9-89.2-125.3-255.6-126.3-113.9.2-190.8 45.4-227.5 73.3-35.4-28.5-110.2-73.3-229.2-73.3-160.2.2-244.9 88.7-248.1 92.1-.6.6-1 1.3-1.5 2-.7.9-1.4 1.7-2.1 2.7-.6.9-1.1 1.9-1.6 2.9-.5.9-1 1.8-1.3 2.7l-1.1 3.4-.7 2.7c-.3 1.3-.3 2.7-.4 4.1 0 .6-.2 1.2-.2 1.9l-.2 403c0 18.1 14.6 32.7 32.7 32.7s32.7-14.6 32.7-32.7l.2-388.5c22.6-18.8 87.2-63.6 191.6-63.5 73.1.1 124.2 19.4 157.3 38 16.5 9.3 28.5 18.6 36 25.2.9.8 1.5 1.4 2.3 2.1v480c-41.6-23.9-104.7-47.6-191.2-47.6-157.1 0-241.4 67.8-245.1 71-13.9 11.5-15.9 32.1-4.4 46.1 11.5 13.9 32.1 15.9 46.1 4.4 0 0 .2-.2 2-1.5 12.8-9.3 80.9-54.5 201.4-54.5 73.1.1 124.2 19.4 157.3 38 16.5 9.3 28.4 18.6 36.1 25.2 0 0 .1 0 .1.1 5.1 6.1 21.3 15.6 32.1 15.6 14.8 0 27.5-9.4 29.5-11.2 13.8-12.9 82.9-67.8 201.7-67.7 69.5 0 122.4 14.9 157.8 29.3 17.6 7.3 30.9 14.4 39.5 19.6 4.3 2.6 7.4 4.7 9.3 6 1.9 1.4 2.2 1.6 2.2 1.6 14.2 11.2 34.8 8.7 45.9-5.4 11.2-14.2 8.7-34.8-5.4-45.9-3.6-2.9-91.2-70.5-249.3-70.6-90.7.1-157.8 23.5-200 49.3v-480.9c23.1-19.4 89.8-66.3 195.6-66.2 65.7 0 116.1 24.8 150.9 50.1 17.3 12.6 30.6 25.3 39.3 34.6 4.4 4.7 7.6 8.5 9.6 11 .4.5.6.7.9 1.1v365.7c-.1 18 14.5 32.6 32.6 32.6zm-229 115.2c-113.9.2-190.8 45.4-227.4 73.4-35.4-28.6-110.2-73.4-229.2-73.4-163.1.5-247.3 107.4-250 110.7-11.2 14.2-8.6 34.8 5.6 45.9 14.2 11.1 34.8 8.6 46-5.6 0 0 .4-.5 2.3-2.6 13.7-15.3 80.8-83.2 196.2-83 73.1.1 124.2 19.3 157.3 38 16.5 9.3 28.4 18.6 36 25.2 3.8 3.3 18.1 20.7 34 20.7 15.9 0 25.2-10 27.1-11.9 13.9-12.9 83.5-72.1 202.2-72 67 0 118.1 21.6 152.9 43.2 17.4 10.8 30.5 21.6 39.1 29.4 4.3 3.9 7.5 7.2 9.5 9.2 2 2.1 2.4 2.7 2.4 2.7 11.6 13.8 32.2 15.7 46.1 4.1 13.8-11.6 15.7-32.2 4.1-46-2.9-3.2-90.7-107.5-254.2-108z"/></svg>