<svg xmlns="http://www.w3.org/2000/svg" viewBox="0 0 1000 1000" enable-background="new 0 0 1000 1000"><path d="M611 690.3v115.4c0 24.4-7.1 36.6-21.3 36.6-8.4 0-16.6-4-24.6-12v-164.6c8-8 16.2-12 24.6-12 14.2 0 21.3 12.2 21.3 36.6zm184.9.6v25.1h-49.2v-25.2c0-24.8 8.2-37.2 24.6-37.2s24.6 12.5 24.6 37.3zm-528.3-119.3h58.5v-51.4h-170.6v51.4h57.4v311.2h54.7v-311.2zm157.5 311.2h48.7v-270.1h-48.7v206.7c-10.9 15.3-21.3 23-31.2 23-6.6 0-10.4-3.8-11.5-11.5-.4-1.1-.5-7.5-.5-19.1v-199.1h-48.7v213.8c0 17.9 1.5 31.2 4.4 39.9 4.4 13.5 14.9 20.2 31.7 20.2 17.5 0 36.1-11.1 55.8-33.4v29.6zm234.6-80.9v-107.8c0-26.6-1.6-44.7-4.9-54.1-6.2-20.4-19.1-30.6-38.8-30.6-18.2 0-35.2 9.8-50.9 29.5v-118.7h-48.7v362.6h48.7v-26.2c16.4 20.1 33.4 30.1 50.9 30.1 19.7 0 32.6-10 38.8-30.1 3.2-9.9 4.9-28.1 4.9-54.7zm184.8-5.5v-7.1h-49.8c0 18.6-.4 29.7-1.1 33.4-2.6 13.1-9.8 19.7-21.9 19.7-16.8 0-25.2-12.6-25.2-37.7v-47.7h97.9v-56.3c0-28.8-4.9-49.9-14.8-63.4-14.2-18.6-33.5-27.9-58-27.9-24.8 0-44.3 9.3-58.5 27.9-10.2 13.5-15.3 34.6-15.3 63.4v94.6c0 28.8 5.3 49.9 15.9 63.4 14.2 18.6 33.9 27.9 59.1 27.9 26.3 0 45.9-9.7 59.1-29 6.6-9.8 10.4-19.7 11.5-29.5.8-3.3 1.1-13.8 1.1-31.7zm-332.5-499.3v-114.8c0-25.2-7.8-37.7-23.5-37.7s-23.5 12.6-23.5 37.7v114.8c0 25.5 7.8 38.3 23.5 38.3s23.5-12.8 23.5-38.3zm393.2 410.7c0 85.3-4.7 149.1-14.2 191.4-5.1 21.5-15.7 39.6-31.7 54.1-16 14.6-34.6 23-55.8 25.2-67.1 7.7-168.2 11.5-303.5 11.5s-236.4-3.8-303.5-11.5c-21.1-2.2-39.8-10.6-56.1-25.2-16.2-14.6-26.7-32.6-31.4-54.1-9.5-40.8-14.2-104.6-14.2-191.4 0-85.3 4.7-149.1 14.2-191.4 5.1-21.5 15.7-39.6 31.7-54.1 16-14.6 34.8-23.2 56.3-25.7 66.7-7.3 167.7-10.9 303-10.9s236.4 3.6 303.5 10.9c21.1 2.6 39.8 11.1 56.1 25.7 16.2 14.6 26.7 32.6 31.4 54.1 9.5 40.8 14.2 104.6 14.2 191.4zm-545.7-697.8h55.8l-66.2 218.2v148.2h-54.7v-148.2c-5.1-27-16.2-65.6-33.4-115.9-13.5-37.6-25.3-71.7-35.5-102.3h58l38.8 143.8 37.2-143.8zm202.3 182.1v95.7c0 29.5-5.1 51-15.3 64.5-13.5 18.6-32.8 27.9-58 27.9-24.4 0-43.6-9.3-57.4-27.9-10.2-13.9-15.3-35.4-15.3-64.5v-95.7c0-29.2 5.1-50.5 15.3-64 13.9-18.6 33-27.9 57.4-27.9 25.2 0 44.5 9.3 58 27.9 10.2 13.5 15.3 34.8 15.3 64zm183.2-88.6v272.9h-49.8v-30.1c-19.3 22.6-38.1 33.9-56.3 33.9-16.8 0-27.5-6.7-32.3-20.2-2.9-8.8-4.4-22.4-4.4-41v-215.5h49.8v200.7c0 12 .2 18.4.5 19.1 1.1 8 4.9 12 11.5 12 9.8 0 20.2-7.8 31.2-23.5v-208.3h49.8z"/></svg>