<svg xmlns="http://www.w3.org/2000/svg" viewBox="0 0 1000 1000" enable-background="new 0 0 1000 1000"><path d="M377.5 130.4c135.1 0 245 110.5 245 246.4 0 51.2-15.7 100.4-45.4 142.4l-24.1 34.1-33.9 24.2c-41.7 29.9-90.7 45.7-141.6 45.7-135.1 0-245-110.5-245-246.4s109.9-246.4 245-246.4zm0-123.2c-203 0-367.5 165.5-367.5 369.6s164.5 369.6 367.5 369.6c79.3 0 152.6-25.5 212.6-68.5l295.1 296.8c12 12.1 27.7 18.1 43.4 18.1s31.4-6 43.4-18.1c24-24.1 24-63.2 0-87.3l-295.1-296.8c42.7-60.4 68.1-134.1 68.1-213.8 0-204.1-164.5-369.6-367.5-369.6z"/></svg>