<svg xmlns="http://www.w3.org/2000/svg" viewBox="0 0 1000 1000" enable-background="new 0 0 1000 1000"><path d="M990 605.9v362.3h-210.1v-338c0-84.9-30.4-142.9-106.4-142.9-58.1 0-92.6 39-107.8 76.8-5.5 13.5-7 32.3-7 51.2v352.9h-210s2.8-572.6 0-631.9h210.1v89.5l-1.4 2.1h1.4v-2.1c27.9-43 77.7-104.4 189.3-104.4 138.3.1 241.9 90.4 241.9 284.5zm-861.1-574.1c-71.9 0-118.9 47.1-118.9 109.1 0 60.7 45.7 109.2 116.1 109.2h1.4c73.3 0 118.8-48.5 118.8-109.2-1.3-62-45.5-109.1-117.4-109.1zm-106.4 936.4h210v-631.8h-210v631.8z"/></svg>