<svg xmlns="http://www.w3.org/2000/svg" viewBox="0 0 1000 1000" enable-background="new 0 0 1000 1000"><path d="M734.9 823.5c-19.9 8.8-41.3 13.2-64 13.2-25.1 0-45.6-3.7-61.5-11.2-15.9-7.5-30.2-19.8-42.7-37.1-12.5-17.3-21-41.3-25.6-71.9-4.6-30.6-6.8-22-6.8-73.6v-227.5h220.8v-208.3h-220.8v-197.1h-176.2c-6.3 48.4-12.2 85.2-17.9 110.6-5.7 25.2-13.5 46.3-23.5 63.1-9.9 16.7-23.8 30.4-41.4 41.1-17.7 10.6-40.7 18.1-69.1 22.4v168.3h126.3v315.4c0 86.8 17.9 150.5 53.8 191.1 35.8 40.7 91.6 49.3 163.9 61.1 42.4 6.9 72.4 9.4 112.2 4.4 49-6.2 100.1-19.1 129.5-28.4l1.9-173.3c-19.3 16.3-39 29-58.9 37.7z"/></svg>