<svg xmlns="http://www.w3.org/2000/svg" viewBox="0 0 1000 1000" enable-background="new 0 0 1000 1000"><path d="M10 500.17v304.75l170.52-1.37c185.59-1.37 195.18-2.4 235.93-21.92 26.37-12.67 58.9-45.2 72.59-71.91 27.4-54.44 27.74-120.87 1.37-169.84-11.3-20.2-44.17-51.7-60.95-57.53-6.51-2.4-11.98-5.48-11.98-6.51 0-1.03 4.79-4.79 10.96-8.22 18.49-11.3 37.32-30.13 45.54-46.23 15.41-31.16 19.52-74.99 10.27-110.94-14.72-57.18-52.73-92.11-117.45-108.89-23.63-5.82-38.69-6.51-191.41-6.51h-165.39v305.12zm327.01-188.67c22.94 11.64 30.48 25.34 30.48 54.44 0 35.95-13.35 53.76-46.91 63.69-13.01 3.77-35.95 5.14-93.82 5.14h-76.36v-134.22l84.92 1.37c82.17 1.02 84.91 1.36 101.69 9.58zm6.85 237.98c26.37 13.7 35.95 30.48 35.95 63.35 0 26.37-4.11 41.43-16.09 57.53-18.49 25-51.36 31.5-154.09 30.82l-59.24-.34v-164.02l86.63 1.37 86.63 1.03 20.21 10.26zM650.32 249.86v30.82h246.54v-61.64h-246.54v30.82zM734.21 337.87c-40.75 5.48-86.63 28.08-116.08 57.53-35.27 35.61-54.1 79.78-59.92 143.47-8.56 88.34 12.67 160.59 60.27 204.08 26.02 23.62 67.45 44.85 102.72 52.73 31.16 6.85 82.18 6.85 114.71.34 58.21-12.33 110.6-50.34 134.57-98.62 19.17-38.35 21.57-36.64-45.89-36.64h-57.53l-7.88 11.3c-22.26 32.53-68.82 44.52-117.79 30.82-37.67-10.61-64.71-45.88-67.8-88.34l-1.03-13.7 158.88-1.03 158.54-.69-1.37-48.96c-2.05-55.47-7.88-78.76-29.11-115.05-37.67-63.69-107.86-100.67-188.33-99.3-14.7.34-31.13 1.37-36.96 2.06zm86.29 103.75c29.45 14.72 48.96 43.49 48.96 72.25v9.93h-194.84l1.71-11.3c1.03-5.82 6.51-20.55 11.98-32.19 16.78-34.93 40.41-48.62 85.6-48.97 22.28.01 29.13 1.38 46.59 10.28z"/></svg>