<svg xmlns="http://www.w3.org/2000/svg" viewBox="0 0 1000 1000" enable-background="new 0 0 1000 1000"><path d="M433.4 658c-16.6 84.4-35.5 153.5-56.6 207.2-21.1 53.7-52.8 95.3-95 124.7-5.1-29.4-7-61.7-5.8-96.9 1.2-35.2 3.2-65.6 5.8-91.1 2.6-25.6 7.4-54.4 14.4-86.4 7-32 13.7-59.5 20.2-82.5 6.4-23 13.7-50.2 22.1-81.5 8.3-31.3 14.4-57.9 18.2-79.6-12.8-24.3-19.2-52.4-19.2-84.4 0-31.9 5.4-61.4 16.3-88.3 10.8-26.9 28.1-47.3 51.8-61.4 23.7-14.1 49.6-16 77.7-5.8 26.9 11.5 41.6 31.4 44.1 59.5 2.6 28.2-1.9 59.2-13.4 93.1-11.5 33.9-22.4 67.5-32.6 100.8-10.3 33.3-11.5 62.7-3.8 88.3 7.7 25.6 28.1 41.6 61.4 48 44.8 9 84.7-3.8 119.9-38.4 35.2-34.5 59.5-77 72.9-127.6 13.4-50.5 16.9-103.3 10.6-158.3-6.4-55-24.3-97.2-53.7-126.6-32-33.3-70.4-55-115.1-65.2-44.8-10.2-88.3-8.6-130.5 4.8-42.2 13.4-80.9 33.9-116.1 61.4-35.2 27.5-61.7 63-79.6 106.5-17.9 43.5-23 88.9-15.3 136.2 2.6 12.8 7.7 25.9 15.3 39.3 7.7 13.4 14.4 24.7 20.2 33.6 5.8 8.9 8.3 21.4 7.7 37.4-.7 16-6.7 33.6-18.2 52.8-95.9-21.7-142-96.6-138.1-224.5 3.8-90.8 38.7-167.6 104.6-230.3 65.5-62.8 141.3-99.2 227.1-109.5 107.5-11.5 202.1 7 284 55.7 81.9 48.6 129.2 120.3 142 214.9 10.2 72.9 4.5 143.9-17.3 213-21.7 69.1-58.8 125-111.3 167.9-52.4 42.9-113.8 61.7-184.2 56.6-14.1-1.3-27.2-4.2-39.3-8.6-12.2-4.5-22.1-8.9-29.7-13.4-7.7-4.5-17.9-11.2-30.7-20.1-12.9-9.1-23.2-16.1-30.8-21.3z"/></svg>