<svg xmlns="http://www.w3.org/2000/svg" viewBox="0 0 1000 1000" enable-background="new 0 0 1000 1000"><path d="M889.7 300.1c.4 8.6.6 17.4.6 26 0 265.8-202.2 572.1-572 572.1-113.7 0-219.3-33.3-308.3-90.4 15.8 1.9 31.7 2.8 47.9 2.8 94.3 0 180.9-32.2 249.7-86-87.9-1.7-162.2-59.7-187.8-139.6 12.3 2.3 24.9 3.5 37.8 3.5 18.4 0 36.2-2.4 53-7-92-18.5-161.3-99.8-161.3-197.2v-2.5c27.1 15.1 58.2 24.1 91.1 25.2-53.9-36.1-89.4-97.6-89.4-167.4 0-36.8 9.9-71.4 27.3-101.1 99.1 121.7 247.3 201.7 414.4 210.1-3.4-14.8-5.2-30-5.2-45.9 0-111 90-201 201-201 57.8 0 110.1 24.3 146.8 63.4 45.8-9.1 88.8-25.8 127.7-48.8-15 46.9-46.9 86.3-88.4 111.2 40.7-4.9 79.4-15.6 115.5-31.6-27.1 40.5-61.1 75.9-100.4 104.2z"/></svg>
