<svg xmlns="http://www.w3.org/2000/svg" viewBox="0 0 1000 1000" enable-background="new 0 0 1000 1000"><path d="M879 838.1v-413.4h-86.1c8.5 26.8 12.8 54.7 12.8 83.6 0 53.6-13.6 103-40.8 148.3-27.2 45.3-64.2 81.1-111 107.5-46.8 26.4-97.8 39.6-153.1 39.6-83.8 0-155.5-28.8-215-86.5s-89.3-127.3-89.3-208.9c0-28.9 4.3-56.8 12.8-83.6h-90v413.4c0 11.1 3.7 20.3 11.2 27.8 7.5 7.5 16.7 11.2 27.8 11.2h682c10.6 0 19.8-3.7 27.4-11.2 7.4-7.5 11.2-16.7 11.3-27.8zm-181.2-340c0-52.7-19.2-97.7-57.7-134.9s-85-55.8-139.4-55.8c-54 0-100.3 18.6-138.8 55.8-38.5 37.2-57.7 82.2-57.7 134.9s19.2 97.7 57.7 134.9 84.7 55.8 138.8 55.8c54.5 0 100.9-18.6 139.4-55.8 38.4-37.2 57.7-82.2 57.7-134.9zm181.2-229.7v-105.3c0-11.9-4.3-22.2-12.8-30.9s-18.9-13.1-31.3-13.1h-111c-12.3 0-22.8 4.4-31.3 13.1s-12.8 19-12.8 30.9v105.3c0 12.3 4.3 22.8 12.8 31.3s18.9 12.8 31.3 12.8h111c12.3 0 22.8-4.3 31.3-12.8 8.5-8.6 12.8-19 12.8-31.3zm111-132.7v728.6c0 34.4-12.3 64-37 88.7s-54.2 37-88.7 37h-728.6c-34.4 0-64-12.3-88.7-37-24.7-24.7-37-54.2-37-88.7v-728.6c0-34.4 12.3-64 37-88.7 24.7-24.7 54.2-37 88.7-37h728.6c34.4 0 64 12.3 88.7 37 24.7 24.7 37 54.3 37 88.7z"/></svg>