<svg xmlns="http://www.w3.org/2000/svg" viewBox="0 0 1000 1000" enable-background="new 0 0 1000 1000"><path d="M500 990c-270.2 0-490-219.8-490-490s219.8-490 490-490 490 219.8 490 490-219.8 490-490 490zm413.2-422.9c-14.3-4.5-129.6-38.9-260.7-17.9 54.7 150.4 77 272.9 81.3 298.4 94-63.5 160.8-164.1 179.4-280.5zm-249.7 318.8c-6.2-36.7-30.5-164.7-89.3-317.4-.9.3-1.8.6-2.8.9-236.1 82.3-320.8 246-328.3 261.4 71 55.3 160.2 88.4 256.9 88.4 58 0 113.2-11.9 163.5-33.3zm-474.4-105.4c9.5-16.2 124.3-206.4 340.2-276.2 5.5-1.8 11-3.4 16.5-5-10.5-23.8-22-47.6-33.9-71-209 62.5-411.8 59.9-430.1 59.6-.1 4.3-.2 8.5-.2 12.8-.1 107.4 40.6 205.6 107.5 279.8zm-98.8-365.6c18.7.3 191.2 1 386.9-51-69.3-123.3-144.1-226.9-155.1-242-117.1 55.2-204.7 163.1-231.8 293zm311.6-321.2c11.6 15.5 87.6 119 156.2 245 148.8-55.7 211.8-140.4 219.4-151.1-74-65.6-171.2-105.5-277.5-105.5-33.8 0-66.6 4-98.1 11.6zm422.1 142.3c-8.8 11.9-79 101.8-233.7 165 9.7 19.9 19.1 40.2 27.8 60.6 3.1 7.2 6.1 14.4 9 21.6 139.3-17.5 277.6 10.5 291.4 13.5-.9-98.8-36.2-189.5-94.5-260.7z"/></svg>