<svg id="Слой_1" data-name="Слой 1" xmlns="http://www.w3.org/2000/svg" viewBox="0 0 462.73 68.04">
  <title>LY-main</title>
  <g>
    <path d="M16.77,60.76V40.17L1.44,12.23H8.56l6.84,13.39c1.87,3.67,3.31,6.62,4.82,10h.14c1.37-3.17,3-6.34,4.9-10l7-13.39h7.13L23.11,40.1V60.76Z" transform="translate(-0.94 -9.14)" style="fill: none;stroke: #1d71b8;stroke-linecap: round;stroke-linejoin: round"/>
    <path d="M70.05,51.26c0,3.6.07,6.77.29,9.5H64.73l-.36-5.69h-.14A13.11,13.11,0,0,1,52.7,61.56c-5.47,0-12-3-12-15.27V25.91H47v19.3c0,6.62,2,11.09,7.78,11.09a9.16,9.16,0,0,0,8.35-5.76,9.28,9.28,0,0,0,.58-3.24V25.91h6.34Z" transform="translate(-0.94 -9.14)" style="fill: none;stroke: #1d71b8;stroke-linecap: round;stroke-linejoin: round"/>
    <path d="M80.56,36.79c0-4.1-.07-7.63-.29-10.87h5.54L86,32.75h.29c1.58-4.68,5.4-7.63,9.65-7.63a6.85,6.85,0,0,1,1.8.22v6a9.51,9.51,0,0,0-2.16-.22c-4.46,0-7.63,3.38-8.5,8.14a17.89,17.89,0,0,0-.29,3V60.76H80.56Z" transform="translate(-0.94 -9.14)" style="fill: none;stroke: #1d71b8;stroke-linecap: round;stroke-linejoin: round"/>
    <path d="M108.21,25.91l7.63,20.59c.79,2.3,1.66,5,2.23,7.13h.14c.65-2.09,1.37-4.75,2.23-7.27l6.91-20.45h6.7l-9.5,24.84c-4.54,12-7.63,18.07-12,21.82a17.17,17.17,0,0,1-7.78,4.1l-1.58-5.33a16.75,16.75,0,0,0,5.54-3.1,19.2,19.2,0,0,0,5.33-7.06,4.55,4.55,0,0,0,.5-1.51,5.52,5.52,0,0,0-.43-1.66L101.3,25.91Z" transform="translate(-0.94 -9.14)" style="fill: none;stroke: #1d71b8;stroke-linecap: round;stroke-linejoin: round"/>
    <path d="M155.3,12.23h6.26V55.51H182.3v5.26h-27Z" transform="translate(-0.94 -9.14)" style="fill: none;stroke: #1d71b8;stroke-linecap: round;stroke-linejoin: round"/>
    <path d="M196.12,16.12a3.92,3.92,0,0,1-7.85,0,3.86,3.86,0,0,1,4-4A3.76,3.76,0,0,1,196.12,16.12Zm-7.06,44.64V25.91h6.34V60.76Z" transform="translate(-0.94 -9.14)" style="fill: none;stroke: #1d71b8;stroke-linecap: round;stroke-linejoin: round"/>
    <path d="M213.54,15.9v10h9.07v4.82h-9.07V49.53c0,4.32,1.22,6.77,4.75,6.77a14.08,14.08,0,0,0,3.67-.43l.29,4.75a15.51,15.51,0,0,1-5.62.86,8.78,8.78,0,0,1-6.84-2.66c-1.8-1.87-2.45-5-2.45-9.07v-19H202V25.91h5.4V17.56Z" transform="translate(-0.94 -9.14)" style="fill: none;stroke: #1d71b8;stroke-linecap: round;stroke-linejoin: round"/>
    <path d="M232.84,25.91l6.84,19.59a89.44,89.44,0,0,1,2.81,8.93h.22c.79-2.88,1.8-5.76,3-8.93l6.77-19.59H259L245.37,60.76h-6L226.07,25.91Z" transform="translate(-0.94 -9.14)" style="fill: none;stroke: #1d71b8;stroke-linecap: round;stroke-linejoin: round"/>
    <path d="M272.08,16.12a3.92,3.92,0,0,1-7.85,0,3.86,3.86,0,0,1,4-4A3.76,3.76,0,0,1,272.08,16.12ZM265,60.76V25.91h6.34V60.76Z" transform="translate(-0.94 -9.14)" style="fill: none;stroke: #1d71b8;stroke-linecap: round;stroke-linejoin: round"/>
    <path d="M281.87,35.35c0-3.6-.07-6.55-.29-9.43h5.62l.36,5.76h.14a12.82,12.82,0,0,1,11.52-6.55C304,25.12,311.54,28,311.54,40V60.76H305.2V40.67c0-5.62-2.09-10.3-8.07-10.3a9,9,0,0,0-8.5,6.48,9.11,9.11,0,0,0-.43,3v21h-6.34Z" transform="translate(-0.94 -9.14)" style="fill: none;stroke: #1d71b8;stroke-linecap: round;stroke-linejoin: round"/>
    <path d="M325.36,44.49c.14,8.57,5.62,12.1,12,12.1a22.91,22.91,0,0,0,9.65-1.8L348,59.32a28.23,28.23,0,0,1-11.59,2.16c-10.73,0-17.14-7.06-17.14-17.57s6.19-18.79,16.35-18.79c11.38,0,14.4,10,14.4,16.42a23.86,23.86,0,0,1-.22,3ZM343.93,40c.07-4-1.66-10.3-8.79-10.3-6.41,0-9.22,5.9-9.72,10.3Z" transform="translate(-0.94 -9.14)" style="fill: none;stroke: #1d71b8;stroke-linecap: round;stroke-linejoin: round"/>
    <path d="M357.9,35.35c0-3.6-.07-6.55-.29-9.43h5.62l.36,5.76h.14a12.82,12.82,0,0,1,11.52-6.55c4.82,0,12.31,2.88,12.31,14.83V60.76h-6.34V40.67c0-5.62-2.09-10.3-8.07-10.3a9,9,0,0,0-8.5,6.48,9.11,9.11,0,0,0-.43,3v21H357.9Z" transform="translate(-0.94 -9.14)" style="fill: none;stroke: #1d71b8;stroke-linecap: round;stroke-linejoin: round"/>
    <path d="M404.13,41.9h.14c.86-1.22,2.09-2.74,3.1-4l10.22-12h7.63L411.76,40.24l15.34,20.52h-7.71l-12-16.71-3.24,3.6v13.1h-6.26V9.64h6.26Z" transform="translate(-0.94 -9.14)" style="fill: none;stroke: #1d71b8;stroke-linecap: round;stroke-linejoin: round"/>
    <path d="M463.17,43.05c0,12.89-8.93,18.51-17.35,18.51-9.43,0-16.71-6.91-16.71-17.93,0-11.66,7.63-18.51,17.28-18.51C456.4,25.12,463.17,32.39,463.17,43.05Zm-27.65.36c0,7.63,4.39,13.39,10.58,13.39s10.58-5.69,10.58-13.54c0-5.9-3-13.39-10.44-13.39S435.52,36.79,435.52,43.41Z" transform="translate(-0.94 -9.14)" style="fill: none;stroke: #1d71b8;stroke-linecap: round;stroke-linejoin: round"/>
  </g>
</svg>
