<svg xmlns="http://www.w3.org/2000/svg" xmlns:xlink="http://www.w3.org/1999/xlink"><symbol id="icon-link" viewBox="0 0 24.625 24.62"><path d="M22.812 1.77a6.208 6.208 0 00-8.743 0L9.348 6.5a7.1 7.1 0 014.908.37l2.454-2.45a2.447 2.447 0 013.46 3.46l-3.085 3.09-2.028 2.02a2.438 2.438 0 01-3.46 0l-2.641 2.65A6.064 6.064 0 0011.035 17a6.237 6.237 0 006.153-.9 4.686 4.686 0 00.511-.46l3.187-3.19 1.926-1.93a6.18 6.18 0 000-8.75zM10.251 17.8l-2.352 2.36a2.447 2.447 0 01-3.46-3.46l5.113-5.12a2.457 2.457 0 013.46 0l2.642-2.64a5.97 5.97 0 00-2.079-1.37 6.206 6.206 0 00-6.426 1.14 3.111 3.111 0 00-.239.23l-5.113 5.11a6.185 6.185 0 008.744 8.75l4.618-4.67c-2.347.54-2.898.48-4.909-.33z"/></symbol><symbol id="icon-magnifier"><path d="M10.519 3.89a1.3 1.3 0 100 2.59 4.156 4.156 0 013.748 2.31 1.327 1.327 0 001.758.6 1.284 1.284 0 00.607-1.73 6.756 6.756 0 00-6.113-3.77zm14.152 17.8l-4.383-4.32a10.838 10.838 0 002.068-6.36 11.158 11.158 0 10-4.346 8.7l4.335 4.27a1.649 1.649 0 002.326 0 1.6 1.6 0 00.004-2.29zM2.624 11.01a8.552 8.552 0 0117.1 0 8.4 8.4 0 01-3.029 6.42 8.561 8.561 0 01-14.067-6.42z"/></symbol><symbol id="icon-text-animated" viewBox="0 0 275 70.9"><path d="M.71.71v8.21h24.07v61.28h9v-61.28h24.04v-8.21zm79.91 0v69.49h44.38v-8.2h-35.42v-25.83h35.42v-8.17h-35.42v-19h35.42v-8.29zm64.93 0l22.95 34.76-23.5 34.73h9.78l18.83-28.61 18.39 28.61h10.36l-23.23-35.15 23.27-34.34h-9.82l-18.58 28.23-18.13-28.23zm71.63 0v8.21h24.08v61.28h9v-61.28h24.08v-8.21z" stroke="#ff6347" stroke-linecap="round" stroke-linejoin="round" stroke-width="1" fill="none" class="rfoHpnBw_0">
   </path>
   <style data-made-with="vivus-instant">.rfoHpnBw_0{stroke-dasharray:1220 1222;stroke-dashoffset:1221;animation:rfoHpnBw_draw 6666ms ease-in 0ms forwards;}@keyframes rfoHpnBw_draw{100%{stroke-dashoffset:0;}}@keyframes rfoHpnBw_fade{0%{stroke-opacity:1;}97.1830985915493%{stroke-opacity:1;}100%{stroke-opacity:0;}}</style></symbol><symbol id="icon-yes-pink" viewBox="-82.357 4.875 22 16"><path d="M-60.953 5.167a.999.999 0 00-1.414 0L-75.75 18.551l-4.9-4.9a.999.999 0 10-1.414 1.414l5.607 5.607a.997.997 0 001.414 0l14.09-14c.391-.481.391-1.114 0-1.505z"/></symbol></svg>