<svg xmlns="http://www.w3.org/2000/svg" xmlns:xlink="http://www.w3.org/1999/xlink"><symbol id="icon-arrow-left" viewBox="0 0 1000 1000"><path d="M334.2 150.4l-306.3 306.3c-23.9 23.9-23.9 62.7 0 86.6l306.3 306.3c23.9 23.9 62.7 23.9 86.6 0 23.9-23.9 23.9-62.7 0-86.6l-201.7-201.7h709.6c33.8 0 61.3-27.4 61.3-61.3 0-33.8-27.4-61.3-61.3-61.3h-709.6l201.7-201.7c12-12 17.9-27.6 17.9-43.3 0-15.7-6-31.3-17.9-43.3-23.9-23.9-62.7-23.9-86.6 0z"/></symbol><symbol id="icon-arrow-right" viewBox="0 0 1000 1000"><path d="M665.8 849.6l306.3-306.3c23.9-23.9 23.9-62.7 0-86.6l-306.3-306.3c-23.9-23.9-62.7-23.9-86.6 0-23.9 23.9-23.9 62.7 0 86.6l201.7 201.7h-709.6c-33.9 0-61.3 27.5-61.3 61.3s27.4 61.3 61.3 61.3h709.6l-201.7 201.6c-12 12-17.9 27.6-17.9 43.3 0 15.7 6 31.4 17.9 43.3 23.9 24 62.7 24 86.6.1z"/></symbol><symbol id="icon-behance" viewBox="0 0 1000 1000"><path d="M10 500.17v304.75l170.52-1.37c185.59-1.37 195.18-2.4 235.93-21.92 26.37-12.67 58.9-45.2 72.59-71.91 27.4-54.44 27.74-120.87 1.37-169.84-11.3-20.2-44.17-51.7-60.95-57.53-6.51-2.4-11.98-5.48-11.98-6.51 0-1.03 4.79-4.79 10.96-8.22 18.49-11.3 37.32-30.13 45.54-46.23 15.41-31.16 19.52-74.99 10.27-110.94-14.72-57.18-52.73-92.11-117.45-108.89-23.63-5.82-38.69-6.51-191.41-6.51h-165.39v305.12zm327.01-188.67c22.94 11.64 30.48 25.34 30.48 54.44 0 35.95-13.35 53.76-46.91 63.69-13.01 3.77-35.95 5.14-93.82 5.14h-76.36v-134.22l84.92 1.37c82.17 1.02 84.91 1.36 101.69 9.58zm6.85 237.98c26.37 13.7 35.95 30.48 35.95 63.35 0 26.37-4.11 41.43-16.09 57.53-18.49 25-51.36 31.5-154.09 30.82l-59.24-.34v-164.02l86.63 1.37 86.63 1.03 20.21 10.26zM650.32 249.86v30.82h246.54v-61.64h-246.54v30.82zM734.21 337.87c-40.75 5.48-86.63 28.08-116.08 57.53-35.27 35.61-54.1 79.78-59.92 143.47-8.56 88.34 12.67 160.59 60.27 204.08 26.02 23.62 67.45 44.85 102.72 52.73 31.16 6.85 82.18 6.85 114.71.34 58.21-12.33 110.6-50.34 134.57-98.62 19.17-38.35 21.57-36.64-45.89-36.64h-57.53l-7.88 11.3c-22.26 32.53-68.82 44.52-117.79 30.82-37.67-10.61-64.71-45.88-67.8-88.34l-1.03-13.7 158.88-1.03 158.54-.69-1.37-48.96c-2.05-55.47-7.88-78.76-29.11-115.05-37.67-63.69-107.86-100.67-188.33-99.3-14.7.34-31.13 1.37-36.96 2.06zm86.29 103.75c29.45 14.72 48.96 43.49 48.96 72.25v9.93h-194.84l1.71-11.3c1.03-5.82 6.51-20.55 11.98-32.19 16.78-34.93 40.41-48.62 85.6-48.97 22.28.01 29.13 1.38 46.59 10.28z"/></symbol><symbol id="icon-dribbble" viewBox="0 0 1000 1000"><path d="M500 990c-270.2 0-490-219.8-490-490s219.8-490 490-490 490 219.8 490 490-219.8 490-490 490zm413.2-422.9c-14.3-4.5-129.6-38.9-260.7-17.9 54.7 150.4 77 272.9 81.3 298.4 94-63.5 160.8-164.1 179.4-280.5zm-249.7 318.8c-6.2-36.7-30.5-164.7-89.3-317.4-.9.3-1.8.6-2.8.9-236.1 82.3-320.8 246-328.3 261.4 71 55.3 160.2 88.4 256.9 88.4 58 0 113.2-11.9 163.5-33.3zm-474.4-105.4c9.5-16.2 124.3-206.4 340.2-276.2 5.5-1.8 11-3.4 16.5-5-10.5-23.8-22-47.6-33.9-71-209 62.5-411.8 59.9-430.1 59.6-.1 4.3-.2 8.5-.2 12.8-.1 107.4 40.6 205.6 107.5 279.8zm-98.8-365.6c18.7.3 191.2 1 386.9-51-69.3-123.3-144.1-226.9-155.1-242-117.1 55.2-204.7 163.1-231.8 293zm311.6-321.2c11.6 15.5 87.6 119 156.2 245 148.8-55.7 211.8-140.4 219.4-151.1-74-65.6-171.2-105.5-277.5-105.5-33.8 0-66.6 4-98.1 11.6zm422.1 142.3c-8.8 11.9-79 101.8-233.7 165 9.7 19.9 19.1 40.2 27.8 60.6 3.1 7.2 6.1 14.4 9 21.6 139.3-17.5 277.6 10.5 291.4 13.5-.9-98.8-36.2-189.5-94.5-260.7z"/></symbol><symbol id="icon-fb" viewBox="0 0 1000 1000"><path d="M572.1 252.2c0-23.6 2.5-41 8.6-50.9 8.6-14.9 25.9-22.4 53-22.4h91.2v-168.9h-152.8c-30.8 0-60.4 3.7-94.9 17.4-70.2 28.6-106 95.6-106 200v101.9h-98.6v170.2h98.6v490.5h200.9v-490.6h136.8l18.5-170.2h-155.3v-77z"/></symbol><symbol id="icon-github" viewBox="0 0 1000 1000"><path d="M990 512c0 106.8-31.2 202.8-93.5 288.1-62.3 85.3-142.8 144.3-241.5 177-11.5 2.1-19.9.6-25.2-4.5-5.3-5.1-8-11.5-8-19.2v-134.5c0-41.3-11.1-71.5-33.2-90.6 24.2-2.5 46-6.4 65.4-11.5 19.3-5.1 39.3-13.4 60-24.9 20.7-11.5 37.9-25.6 51.7-42.4 13.8-16.8 25.1-39.1 33.8-67 8.7-27.8 13.1-59.9 13.1-96 0-51.5-16.8-95.3-50.4-131.4 15.7-38.7 14-82.1-5.1-130.2-11.9-3.8-29.1-1.5-51.7 7-22.5 8.5-42.1 17.9-58.7 28.1l-24.3 15.3c-39.6-11.1-80.4-16.6-122.5-16.6-42.1 0-83 5.5-122.5 16.6-6.8-4.7-15.9-10.4-27.1-17.2-11.3-6.8-29-15-53.3-24.6-24.2-9.6-42.5-12.4-54.9-8.6-18.7 48.1-20.1 91.4-4.4 130.1-33.6 36.2-50.4 80-50.4 131.4 0 36.2 4.4 68.1 13.1 95.7 8.7 27.7 19.9 50 33.5 67s30.8 31.3 51.4 42.7c20.6 11.5 40.6 19.8 60 24.9 19.4 5.1 41.2 8.9 65.4 11.5-17 15.3-27.4 37.2-31.3 65.7-8.9 4.3-18.5 7.5-28.7 9.6-10.2 2.1-22.3 3.2-36.4 3.2s-28-4.6-41.8-13.7c-13.8-9.1-25.6-22.4-35.4-39.9-8.1-13.6-18.4-24.7-30.9-33.2-12.6-8.5-23.1-13.6-31.6-15.3l-12.8-1.9c-8.9 0-15.1 1-18.5 2.9-3.4 1.9-4.5 4.3-3.2 7.3 1.3 3 3.2 6 5.8 8.9 2.5 3 5.3 5.5 8.3 7.6l4.5 3.2c9.4 4.3 18.6 12.3 27.8 24.3 9.1 11.9 15.9 22.8 20.1 32.5l6.4 14.7c5.5 16.2 14.9 29.3 28.1 39.2 13.2 10 27.4 16.4 42.7 19.1 15.3 2.8 30.1 4.3 44.3 4.5 14.3.2 26.1-.6 35.4-2.3l14.7-2.5c0 16.2.1 35.1.3 56.8.2 21.7.3 33.2.3 34.4 0 7.6-2.8 14-8.3 19.2-5.5 5.1-14 6.6-25.5 4.5-98.7-32.8-179.2-91.8-241.5-177-62.3-85.3-93.5-181.3-93.5-288.1 0-88.9 21.9-170.9 65.7-246s103.2-134.5 178.3-178.3 157.1-65.7 246-65.7 170.9 21.9 246 65.7c75.1 43.8 134.5 103.2 178.3 178.3 43.8 75.1 65.7 157.1 65.7 246v.1z"/></symbol><symbol id="icon-inst" viewBox="0 0 1000 1000"><path d="M879 838.1v-413.4h-86.1c8.5 26.8 12.8 54.7 12.8 83.6 0 53.6-13.6 103-40.8 148.3-27.2 45.3-64.2 81.1-111 107.5-46.8 26.4-97.8 39.6-153.1 39.6-83.8 0-155.5-28.8-215-86.5s-89.3-127.3-89.3-208.9c0-28.9 4.3-56.8 12.8-83.6h-90v413.4c0 11.1 3.7 20.3 11.2 27.8 7.5 7.5 16.7 11.2 27.8 11.2h682c10.6 0 19.8-3.7 27.4-11.2 7.4-7.5 11.2-16.7 11.3-27.8zm-181.2-340c0-52.7-19.2-97.7-57.7-134.9s-85-55.8-139.4-55.8c-54 0-100.3 18.6-138.8 55.8-38.5 37.2-57.7 82.2-57.7 134.9s19.2 97.7 57.7 134.9 84.7 55.8 138.8 55.8c54.5 0 100.9-18.6 139.4-55.8 38.4-37.2 57.7-82.2 57.7-134.9zm181.2-229.7v-105.3c0-11.9-4.3-22.2-12.8-30.9s-18.9-13.1-31.3-13.1h-111c-12.3 0-22.8 4.4-31.3 13.1s-12.8 19-12.8 30.9v105.3c0 12.3 4.3 22.8 12.8 31.3s18.9 12.8 31.3 12.8h111c12.3 0 22.8-4.3 31.3-12.8 8.5-8.6 12.8-19 12.8-31.3zm111-132.7v728.6c0 34.4-12.3 64-37 88.7s-54.2 37-88.7 37h-728.6c-34.4 0-64-12.3-88.7-37-24.7-24.7-37-54.2-37-88.7v-728.6c0-34.4 12.3-64 37-88.7 24.7-24.7 54.2-37 88.7-37h728.6c34.4 0 64 12.3 88.7 37 24.7 24.7 37 54.3 37 88.7z"/></symbol><symbol id="icon-link" viewBox="0 0 24.625 24.62"><path d="M22.812 1.77a6.208 6.208 0 00-8.743 0L9.348 6.5a7.1 7.1 0 014.908.37l2.454-2.45a2.447 2.447 0 013.46 3.46l-3.085 3.09-2.028 2.02a2.438 2.438 0 01-3.46 0l-2.641 2.65A6.064 6.064 0 0011.035 17a6.237 6.237 0 006.153-.9 4.686 4.686 0 00.511-.46l3.187-3.19 1.926-1.93a6.18 6.18 0 000-8.75zM10.251 17.8l-2.352 2.36a2.447 2.447 0 01-3.46-3.46l5.113-5.12a2.457 2.457 0 013.46 0l2.642-2.64a5.97 5.97 0 00-2.079-1.37 6.206 6.206 0 00-6.426 1.14 3.111 3.111 0 00-.239.23l-5.113 5.11a6.185 6.185 0 008.744 8.75l4.618-4.67c-2.347.54-2.898.48-4.909-.33z"/></symbol><symbol id="icon-linkedin" viewBox="0 0 1000 1000"><path d="M990 605.9v362.3h-210.1v-338c0-84.9-30.4-142.9-106.4-142.9-58.1 0-92.6 39-107.8 76.8-5.5 13.5-7 32.3-7 51.2v352.9h-210s2.8-572.6 0-631.9h210.1v89.5l-1.4 2.1h1.4v-2.1c27.9-43 77.7-104.4 189.3-104.4 138.3.1 241.9 90.4 241.9 284.5zm-861.1-574.1c-71.9 0-118.9 47.1-118.9 109.1 0 60.7 45.7 109.2 116.1 109.2h1.4c73.3 0 118.8-48.5 118.8-109.2-1.3-62-45.5-109.1-117.4-109.1zm-106.4 936.4h210v-631.8h-210v631.8z"/></symbol><symbol id="icon-magnifier"><path d="M10.519 3.89a1.3 1.3 0 100 2.59 4.156 4.156 0 013.748 2.31 1.327 1.327 0 001.758.6 1.284 1.284 0 00.607-1.73 6.756 6.756 0 00-6.113-3.77zm14.152 17.8l-4.383-4.32a10.838 10.838 0 002.068-6.36 11.158 11.158 0 10-4.346 8.7l4.335 4.27a1.649 1.649 0 002.326 0 1.6 1.6 0 00.004-2.29zM2.624 11.01a8.552 8.552 0 0117.1 0 8.4 8.4 0 01-3.029 6.42 8.561 8.561 0 01-14.067-6.42z"/></symbol><symbol id="icon-pinterest" viewBox="0 0 1000 1000"><path d="M433.4 658c-16.6 84.4-35.5 153.5-56.6 207.2-21.1 53.7-52.8 95.3-95 124.7-5.1-29.4-7-61.7-5.8-96.9 1.2-35.2 3.2-65.6 5.8-91.1 2.6-25.6 7.4-54.4 14.4-86.4 7-32 13.7-59.5 20.2-82.5 6.4-23 13.7-50.2 22.1-81.5 8.3-31.3 14.4-57.9 18.2-79.6-12.8-24.3-19.2-52.4-19.2-84.4 0-31.9 5.4-61.4 16.3-88.3 10.8-26.9 28.1-47.3 51.8-61.4 23.7-14.1 49.6-16 77.7-5.8 26.9 11.5 41.6 31.4 44.1 59.5 2.6 28.2-1.9 59.2-13.4 93.1-11.5 33.9-22.4 67.5-32.6 100.8-10.3 33.3-11.5 62.7-3.8 88.3 7.7 25.6 28.1 41.6 61.4 48 44.8 9 84.7-3.8 119.9-38.4 35.2-34.5 59.5-77 72.9-127.6 13.4-50.5 16.9-103.3 10.6-158.3-6.4-55-24.3-97.2-53.7-126.6-32-33.3-70.4-55-115.1-65.2-44.8-10.2-88.3-8.6-130.5 4.8-42.2 13.4-80.9 33.9-116.1 61.4-35.2 27.5-61.7 63-79.6 106.5-17.9 43.5-23 88.9-15.3 136.2 2.6 12.8 7.7 25.9 15.3 39.3 7.7 13.4 14.4 24.7 20.2 33.6 5.8 8.9 8.3 21.4 7.7 37.4-.7 16-6.7 33.6-18.2 52.8-95.9-21.7-142-96.6-138.1-224.5 3.8-90.8 38.7-167.6 104.6-230.3 65.5-62.8 141.3-99.2 227.1-109.5 107.5-11.5 202.1 7 284 55.7 81.9 48.6 129.2 120.3 142 214.9 10.2 72.9 4.5 143.9-17.3 213-21.7 69.1-58.8 125-111.3 167.9-52.4 42.9-113.8 61.7-184.2 56.6-14.1-1.3-27.2-4.2-39.3-8.6-12.2-4.5-22.1-8.9-29.7-13.4-7.7-4.5-17.9-11.2-30.7-20.1-12.9-9.1-23.2-16.1-30.8-21.3z"/></symbol><symbol id="icon-search" viewBox="0 0 1000 1000"><path d="M377.5 130.4c135.1 0 245 110.5 245 246.4 0 51.2-15.7 100.4-45.4 142.4l-24.1 34.1-33.9 24.2c-41.7 29.9-90.7 45.7-141.6 45.7-135.1 0-245-110.5-245-246.4s109.9-246.4 245-246.4zm0-123.2c-203 0-367.5 165.5-367.5 369.6s164.5 369.6 367.5 369.6c79.3 0 152.6-25.5 212.6-68.5l295.1 296.8c12 12.1 27.7 18.1 43.4 18.1s31.4-6 43.4-18.1c24-24.1 24-63.2 0-87.3l-295.1-296.8c42.7-60.4 68.1-134.1 68.1-213.8 0-204.1-164.5-369.6-367.5-369.6z"/></symbol><symbol id="icon-text-animated" viewBox="0 0 275 70.9"><path d="M.71.71v8.21h24.07v61.28h9v-61.28h24.04v-8.21zm79.91 0v69.49h44.38v-8.2h-35.42v-25.83h35.42v-8.17h-35.42v-19h35.42v-8.29zm64.93 0l22.95 34.76-23.5 34.73h9.78l18.83-28.61 18.39 28.61h10.36l-23.23-35.15 23.27-34.34h-9.82l-18.58 28.23-18.13-28.23zm71.63 0v8.21h24.08v61.28h9v-61.28h24.08v-8.21z" stroke="#ff6347" stroke-linecap="round" stroke-linejoin="round" stroke-width="1" fill="none" class="rfoHpnBw_0">
   </path>
   <style data-made-with="vivus-instant">.rfoHpnBw_0{stroke-dasharray:1220 1222;stroke-dashoffset:1221;animation:rfoHpnBw_draw 6666ms ease-in 0ms forwards;}@keyframes rfoHpnBw_draw{100%{stroke-dashoffset:0;}}@keyframes rfoHpnBw_fade{0%{stroke-opacity:1;}97.1830985915493%{stroke-opacity:1;}100%{stroke-opacity:0;}}</style></symbol><symbol id="icon-tumblr" viewBox="0 0 1000 1000"><path d="M734.9 823.5c-19.9 8.8-41.3 13.2-64 13.2-25.1 0-45.6-3.7-61.5-11.2-15.9-7.5-30.2-19.8-42.7-37.1-12.5-17.3-21-41.3-25.6-71.9-4.6-30.6-6.8-22-6.8-73.6v-227.5h220.8v-208.3h-220.8v-197.1h-176.2c-6.3 48.4-12.2 85.2-17.9 110.6-5.7 25.2-13.5 46.3-23.5 63.1-9.9 16.7-23.8 30.4-41.4 41.1-17.7 10.6-40.7 18.1-69.1 22.4v168.3h126.3v315.4c0 86.8 17.9 150.5 53.8 191.1 35.8 40.7 91.6 49.3 163.9 61.1 42.4 6.9 72.4 9.4 112.2 4.4 49-6.2 100.1-19.1 129.5-28.4l1.9-173.3c-19.3 16.3-39 29-58.9 37.7z"/></symbol><symbol id="icon-tw" viewBox="0 0 1000 1000"><path d="M889.7 300.1c.4 8.6.6 17.4.6 26 0 265.8-202.2 572.1-572 572.1-113.7 0-219.3-33.3-308.3-90.4 15.8 1.9 31.7 2.8 47.9 2.8 94.3 0 180.9-32.2 249.7-86-87.9-1.7-162.2-59.7-187.8-139.6 12.3 2.3 24.9 3.5 37.8 3.5 18.4 0 36.2-2.4 53-7-92-18.5-161.3-99.8-161.3-197.2v-2.5c27.1 15.1 58.2 24.1 91.1 25.2-53.9-36.1-89.4-97.6-89.4-167.4 0-36.8 9.9-71.4 27.3-101.1 99.1 121.7 247.3 201.7 414.4 210.1-3.4-14.8-5.2-30-5.2-45.9 0-111 90-201 201-201 57.8 0 110.1 24.3 146.8 63.4 45.8-9.1 88.8-25.8 127.7-48.8-15 46.9-46.9 86.3-88.4 111.2 40.7-4.9 79.4-15.6 115.5-31.6-27.1 40.5-61.1 75.9-100.4 104.2z"/></symbol><symbol id="icon-vk" viewBox="0 0 1000 1000"><path d="M882.3 612.6s79.2 78.3 98.8 114.5c.5.8.8 1.4.9 1.7 8 13.4 9.9 23.9 6 31.6-6.6 12.8-29 19.2-36.6 19.7h-140c-9.8 0-30-2.5-54.7-19.6-18.9-13.2-37.6-34.9-55.8-56.1-27.1-31.5-50.6-58.8-74.4-58.8-3 0-6 .5-8.8 1.5-18 5.7-40.8 31.3-40.8 99.6 0 21.4-16.9 33.5-28.7 33.5h-64.1c-21.9 0-135.6-7.6-236.5-114-123.7-130.3-234.8-391.6-235.8-393.9-6.9-16.9 7.6-26.1 23.3-26.1h141.4c19 0 25.1 11.5 29.4 21.8 5 11.8 23.5 59 53.9 112.1 49.2 86.3 79.4 121.5 103.6 121.5 4.6 0 8.9-1.1 12.9-3.4 31.6-17.3 25.7-130 24.2-153.3 0-4.5 0-50.3-16.2-72.5-11.6-15.9-31.3-22.1-43.2-24.3 3.2-4.6 9.9-11.7 18.6-15.8 21.6-10.8 60.7-12.3 99.4-12.3h21.5c42 .6 52.9 3.3 68.2 7.2 30.8 7.4 31.4 27.3 28.7 95.2-.8 19.4-1.6 41.3-1.6 67 0 5.5-.2 11.6-.2 17.8-.9 34.8-2.2 74.1 22.4 90.2 3.1 2 6.8 3 10.6 3 8.5 0 34.1 0 103.3-118.8 30.4-52.5 53.9-114.4 55.5-119 1.4-2.6 5.5-9.9 10.5-12.8 3.8-2.4 8.9-2.7 11.6-2.7h166.4c18.1 0 30.4 2.7 32.8 9.6 4 11.1-.8 45.1-76.7 147.8-12.8 17.1-24 31.9-33.9 44.8-68.8 90.1-68.8 94.7 4.1 163.3z"/></symbol><symbol id="icon-yes-pink" viewBox="-82.357 4.875 22 16"><path d="M-60.953 5.167a.999.999 0 00-1.414 0L-75.75 18.551l-4.9-4.9a.999.999 0 10-1.414 1.414l5.607 5.607a.997.997 0 001.414 0l14.09-14c.391-.481.391-1.114 0-1.505z"/></symbol><symbol id="icon-youtube" viewBox="0 0 1000 1000"><path d="M611 690.3v115.4c0 24.4-7.1 36.6-21.3 36.6-8.4 0-16.6-4-24.6-12v-164.6c8-8 16.2-12 24.6-12 14.2 0 21.3 12.2 21.3 36.6zm184.9.6v25.1h-49.2v-25.2c0-24.8 8.2-37.2 24.6-37.2s24.6 12.5 24.6 37.3zm-528.3-119.3h58.5v-51.4h-170.6v51.4h57.4v311.2h54.7v-311.2zm157.5 311.2h48.7v-270.1h-48.7v206.7c-10.9 15.3-21.3 23-31.2 23-6.6 0-10.4-3.8-11.5-11.5-.4-1.1-.5-7.5-.5-19.1v-199.1h-48.7v213.8c0 17.9 1.5 31.2 4.4 39.9 4.4 13.5 14.9 20.2 31.7 20.2 17.5 0 36.1-11.1 55.8-33.4v29.6zm234.6-80.9v-107.8c0-26.6-1.6-44.7-4.9-54.1-6.2-20.4-19.1-30.6-38.8-30.6-18.2 0-35.2 9.8-50.9 29.5v-118.7h-48.7v362.6h48.7v-26.2c16.4 20.1 33.4 30.1 50.9 30.1 19.7 0 32.6-10 38.8-30.1 3.2-9.9 4.9-28.1 4.9-54.7zm184.8-5.5v-7.1h-49.8c0 18.6-.4 29.7-1.1 33.4-2.6 13.1-9.8 19.7-21.9 19.7-16.8 0-25.2-12.6-25.2-37.7v-47.7h97.9v-56.3c0-28.8-4.9-49.9-14.8-63.4-14.2-18.6-33.5-27.9-58-27.9-24.8 0-44.3 9.3-58.5 27.9-10.2 13.5-15.3 34.6-15.3 63.4v94.6c0 28.8 5.3 49.9 15.9 63.4 14.2 18.6 33.9 27.9 59.1 27.9 26.3 0 45.9-9.7 59.1-29 6.6-9.8 10.4-19.7 11.5-29.5.8-3.3 1.1-13.8 1.1-31.7zm-332.5-499.3v-114.8c0-25.2-7.8-37.7-23.5-37.7s-23.5 12.6-23.5 37.7v114.8c0 25.5 7.8 38.3 23.5 38.3s23.5-12.8 23.5-38.3zm393.2 410.7c0 85.3-4.7 149.1-14.2 191.4-5.1 21.5-15.7 39.6-31.7 54.1-16 14.6-34.6 23-55.8 25.2-67.1 7.7-168.2 11.5-303.5 11.5s-236.4-3.8-303.5-11.5c-21.1-2.2-39.8-10.6-56.1-25.2-16.2-14.6-26.7-32.6-31.4-54.1-9.5-40.8-14.2-104.6-14.2-191.4 0-85.3 4.7-149.1 14.2-191.4 5.1-21.5 15.7-39.6 31.7-54.1 16-14.6 34.8-23.2 56.3-25.7 66.7-7.3 167.7-10.9 303-10.9s236.4 3.6 303.5 10.9c21.1 2.6 39.8 11.1 56.1 25.7 16.2 14.6 26.7 32.6 31.4 54.1 9.5 40.8 14.2 104.6 14.2 191.4zm-545.7-697.8h55.8l-66.2 218.2v148.2h-54.7v-148.2c-5.1-27-16.2-65.6-33.4-115.9-13.5-37.6-25.3-71.7-35.5-102.3h58l38.8 143.8 37.2-143.8zm202.3 182.1v95.7c0 29.5-5.1 51-15.3 64.5-13.5 18.6-32.8 27.9-58 27.9-24.4 0-43.6-9.3-57.4-27.9-10.2-13.9-15.3-35.4-15.3-64.5v-95.7c0-29.2 5.1-50.5 15.3-64 13.9-18.6 33-27.9 57.4-27.9 25.2 0 44.5 9.3 58 27.9 10.2 13.5 15.3 34.8 15.3 64zm183.2-88.6v272.9h-49.8v-30.1c-19.3 22.6-38.1 33.9-56.3 33.9-16.8 0-27.5-6.7-32.3-20.2-2.9-8.8-4.4-22.4-4.4-41v-215.5h49.8v200.7c0 12 .2 18.4.5 19.1 1.1 8 4.9 12 11.5 12 9.8 0 20.2-7.8 31.2-23.5v-208.3h49.8z"/></symbol></svg>